<?xml version="1.0" encoding="utf-8"?>
<!-- Generator: Adobe Illustrator 25.1.0, SVG Export Plug-In . SVG Version: 6.00 Build 0)  -->
<svg version="1.1" id="Camada_1" xmlns="http://www.w3.org/2000/svg" xmlns:xlink="http://www.w3.org/1999/xlink" x="0px" y="0px"
	 viewBox="0 0 949 335" style="enable-background:new 0 0 949 335;" xml:space="preserve">
<style type="text/css">
	.st0{display:none;}
	.st1{fill:#00BAC6;}
	.st2{fill:#FFFFFF;}
</style>
<rect x="-60" y="-43" class="st0" width="1132" height="486"/>
<g transform="translate(0.000000,1248.000000) scale(0.100000,-0.100000)">
	<g>
		<path class="st1" d="M439.7,12391l-21.1-42.2l13.6-7.8c7.6-4.2,105.9-60.5,218.5-124.9l204.7-117.1l-0.5-33.4
			c-0.8-40.9-6.3-81.1-16.4-123.1c-32.3-132.4-111.6-238.5-232.6-311.8l-20.1-12.2L375,11739c-115.8,66.2-214.3,122.5-219,125.4
			l-8.3,5l-10.7-20.9l-10.4-21.1l11.7-32.8c44.6-122.3,113.2-232.8,189.8-305.3c122.3-115.5,283.4-175.7,489.4-182.2
			c55.3-1.8,67.5-4.2,98.3-20.6c59.7-31.5,136.1-91.2,251.1-195.5c61.5-55.8,92-85.2,188-180.7l85.2-84.5l167.4,167.4l167.6,167.1
			l-89.9,90.5c-241.2,242.5-382.5,405.4-434.3,501.1c-15.9,29.5-18,40.9-19.8,103c-3.7,128.3-20.9,216.4-56.6,293
			c-34.9,74.6-94.9,139-168.7,180.7c-112.6,63.9-265.7,96.5-483.4,102.7l-61.5,1.8L439.7,12391z"/>
		<path class="st1" d="M2860.1,12183c-113.1-79.3-207.5-146.8-209.4-150.2s-12-41.7-22.9-85.5l-19.6-79.3l-604.9-604.3l-604.6-604.3
			l-83.4,52.1l-83.4,52.1l-41.7-41.7c-40.7-40.7-41.7-42.2-41.7-52.9c0-15.9-4.4-44.6-10.4-67.5c-24.2-94.4-104.6-184.6-215.3-241.2
			c-54.2-27.9-113.4-47.2-164.8-53.5l-26.8-3.4l-344.4-344.1L42.4,9615.5l1.8-22.4c7-94.4,61-196.3,147.8-280.3
			c74.8-72.2,156.7-116.3,243.5-130.4c13-2.1,28.7-3.9,34.9-3.9h11.5l343.9,343.9c318.1,318.6,343.6,344.7,343.6,352.8
			c0,28.2,14.3,86.8,31.8,131.1c54.5,137.1,153.8,237.8,264.6,267.2c11.2,3.1,33.9,6.8,50.8,8.6l30.2,2.9l40.9,40.7l40.9,40.9
			l-52.4,83.7l-52.4,84l602.3,602c331.4,330.8,604.1,603.3,606.2,605.1s40.4,12.2,85,23.5s82.6,21.9,84.5,24
			c1.8,1.8,68.1,95.7,147,208.6l143.4,205.2l-54.2,54.2c-30,29.7-58.4,57.9-63.1,62.3l-8.9,8.3L2860.1,12183z"/>
		<path class="st1" d="M1856.9,10742.3l-166.6-167.1l113.4-113.7c160.1-160.9,238.8-243.8,318.6-336.6
			c86.6-100.6,140.8-179.6,149.6-219c1.3-6.5,3.1-36.2,4.2-66.5c4.9-189.8,43.3-309,127.2-396.8c37.5-39.4,73.3-65.4,124.4-90.7
			c110.8-55.3,253.4-82.9,456.8-88.9l61.5-1.8l21.1,42l21.1,42.2l-13.6,7.8c-7.6,4.2-105.9,60.5-218.5,124.9l-204.7,117.1l0.5,32.1
			c3.1,184.3,92,341.5,246.4,434.6l22.7,13.8l210.7-120.5c115.8-66.2,214.3-122.5,219-125.4l8.3-5l10.4,20.9l10.4,20.6l-7.3,21.9
			c-18.2,53.7-51.6,125.4-81.9,175.5c-107.7,178.3-269.3,282.3-488.1,313.9c-42,6-100.6,10.7-137.7,10.7c-39.6,0-67.5,11-123.1,47.7
			c-88.4,58.9-202.1,160.9-410.6,368.7c-58.1,57.6-106.4,105.1-106.9,104.8C2023.8,10909.4,1948.4,10834,1856.9,10742.3z"/>
	</g>
</g>
<g>
	<g>
		<path class="st2" d="M368,92.3h52v22.6h-74.6V59.1h6.6v13.2h20.7v7.2H368L368,92.3L368,92.3z M374.1,32.8v18H426L417.2,73
			l-0.1,0.3h-38.3v-7.2h-20.7V52.9h-6.6V10.1h74.6v22.6H374.1z"/>
		<path class="st2" d="M441.4,37L494,82.8v9.7l-30-26.3v48.9h-22.6L441.4,37L441.4,37z M533,10.4v104.7l-32.8-28.7v-9.7l-52.6-45.9
			V10.3l62.9,54.9V20.2L533,10.4z"/>
		<path class="st2" d="M622.2,85.8l14.5,18.1c-10.1,8.1-22.4,12.1-34.6,12.1c-15.8,0-31.6-6.6-42.5-19.5c-8.1-9.6-12.3-21.1-13-32.8
			h5.8c0.3,4.6,1.2,9.1,2.7,13.4c1.9,5.3,4.6,10.2,8.2,14.6l1.9,2.4l13.5-10.9l1.1,1c6,5.6,13.8,8.6,22,8.6
			C609.4,93,616.5,90.4,622.2,85.8z M558.6,57.6h-6.7c1.5-25.6,22.4-46.3,48.5-47.1c13.3-0.4,26.1,4.4,35.9,13.6
			c1.1,1,2.1,2.1,3.1,3.2l-16.8,14.9c-5.1-5.7-12.5-9.3-20.7-9.3c-15.3,0-27.7,12.4-27.7,27.7c0,5.5,1.6,10.6,4.4,14.9l-12.3,9.9
			c-2.2-3.2-4-6.7-5.3-10.3c-1.7-4.7-2.5-9.5-2.5-14.5L558.6,57.6L558.6,57.6z"/>
		<path class="st2" d="M649.5,73.9c-3.1-11.9-2.2-25.6,3.3-36.6c0.8-1.6,1.7-3.2,2.7-4.7c6.2-9.6,15.5-16.8,26.5-20.5
			c12.8-4.2,26.4-3.2,38.4,2.9c11.9,6,20.8,16.3,25,28.9l-5.4,1.2c-1.5-4.1-3.7-8-6.3-11.5c-3.2-4.3-7.2-7.9-11.7-10.9l-2.6-1.7
			l-9.1,14.1c0,0,0,0-0.1,0c-6.6-3.3-14.1-3.9-21.2-1.6c-7,2.3-12.8,7.2-16.1,13.8c-3.3,6.6-3.9,14.1-1.6,21.2
			c1.7,5.2,4.9,9.7,9.1,13.1l-8.4,13c-2.9-2.2-5.4-4.7-7.6-7.6c-2.8-3.7-4.9-7.8-6.3-12.3l-0.8-2.7L649.5,73.9z M740.6,86.9
			c-6.1,12-16.4,20.9-29.2,25.1c-12.8,4.2-26.4,3.2-38.4-2.9c-11.8-6-20.6-16.1-24.9-28.6l5.3-1.2c1.5,4.1,3.7,8,6.3,11.5
			c3.2,4.3,7.2,7.9,11.7,10.8l2.6,1.7l9.2-14.4c6.6,3.3,14.1,3.9,21.2,1.6c6.1-2,11.2-6,14.6-11.3c0.5-0.8,1-1.7,1.5-2.6
			c3.3-6.6,3.9-14.1,1.6-21.2c-1.7-5.2-4.8-9.7-9-13l8.2-12.8c2.9,2.2,5.4,4.7,7.6,7.6c2.8,3.7,4.9,7.8,6.3,12.3l0.8,2.7l8.4-1.9
			C747.2,62.4,746.1,76,740.6,86.9z"/>
		<path class="st2" d="M769.8,70.5h14v45.3h-22.6V23.9h8.7L769.8,70.5L769.8,70.5z M851,59.2c0,27.7-21.1,50.3-47.1,50.3h-14V86.9
			h13.9c13.4,0,24.6-12.7,24.6-27.7c0-7.9-3.1-15.5-8.5-20.8c-4.5-4.4-10.2-6.9-16-6.9h-14v32.9h-14V17.8h-8.7V8.9l36.5-0.1
			c12,0,23.3,4.8,32,13.4C845.5,31.8,851,45.2,851,59.2z"/>
		<path class="st2" d="M886.5,92.3h52v22.6h-74.6V59.1h6.6v13.2h20.7v7.2h-4.7L886.5,92.3L886.5,92.3z M892.7,32.8v18h51.9L935.8,73
			l-0.1,0.3h-38.3v-7.2h-20.7V52.9h-6.6V10.1h74.7v22.6H892.7z"/>
	</g>
</g>
<g>
	<path class="st1" d="M467.6,123.8l-21.5,21.8h-78.5l-21.8-21.8H467.6z M417.6,224.1l-8.1,7.8l-13.7-13.3v-58.2l10.8-10.7l11,10.7
		L417.6,224.1L417.6,224.1z M417.6,316.2l-11,10.8l-10.8-10.8v-62.5l13.7-13.7l8.1,8.1L417.6,316.2L417.6,316.2z"/>
	<path class="st1" d="M502.4,213v-85.4l21.8,21.8v58.1l-13.7,13.7L502.4,213z M524.2,242.9v58.1l-21.8,21.8v-85.1l8.1-8.4
		L524.2,242.9z M624.2,123.8l-21.5,21.8H528l-21.5-21.8H624.2z M624.2,326.9H506.5l21.5-21.8h74.7L624.2,326.9z M601.2,214.5
		l11,10.9l-11,10.9h-75.8l-10.8-10.9l10.8-10.9H601.2z"/>
	<path class="st1" d="M680.9,207.5l-13.7,13.7l-8.1-8.1v-63.6l10.8-11l11,11L680.9,207.5L680.9,207.5z M680.9,301.1l-11,11l-10.8-11
		v-63.4l8.1-8.4l13.7,13.7L680.9,301.1L680.9,301.1z M780.8,123.8l-21.5,21.8h-74.7l-10.8-11l10.8-10.8H780.8z M780.8,326.9h-96.2
		l-10.8-10.8l10.8-11h74.7L780.8,326.9z"/>
	<path class="st1" d="M815.7,213v-89.3l21.8,21.8v62.1l-13.7,13.6L815.7,213z M837.5,242.9v62.2L815.7,327v-89.3l8.1-8.4
		L837.5,242.9z M914.5,214.5l11,10.9l-11,10.9h-75.8l-10.8-10.9l10.8-10.9H914.5z M915.7,207.5v-62.2l21.8-21.8V213l-8,8.1
		L915.7,207.5z M937.5,237.7v89.2l-21.8-21.8v-62.2l13.8-13.7L937.5,237.7z"/>
</g>
</svg>
