<?xml version="1.0" encoding="utf-8"?>
<!-- Generator: Adobe Illustrator 25.1.0, SVG Export Plug-In . SVG Version: 6.00 Build 0)  -->
<svg version="1.1" id="Camada_1" xmlns="http://www.w3.org/2000/svg" xmlns:xlink="http://www.w3.org/1999/xlink" x="0px" y="0px"
	 viewBox="0 0 1465.3 487" style="enable-background:new 0 0 1465.3 487;" xml:space="preserve">
<style type="text/css">
	.st0{fill:#FFFFFF;}
</style>
<g>
	<path class="st0" d="M148.1,144.7c0,115.4,0,230.6,0,346c-49.4,0-98.6,0-148.1,0c0-115.2,0-230.4,0-346
		C49.2,144.7,98.5,144.7,148.1,144.7z M133.3,191.9c0-10.1,0-20,0-30c-39.7,0-79.1,0-118.5,0c0,10.2,0,20.1,0,30
		C54.4,191.9,93.7,191.9,133.3,191.9z M133.4,207.7c-39.7,0-79.1,0-118.6,0c0,10.1,0,19.9,0,29.9c39.6,0,79,0,118.6,0
		C133.4,227.6,133.4,217.9,133.4,207.7z M73.8,470.4c14.7,0,29.5,0.1,44.2-0.1c1.8,0,3.8-0.9,5.2-2.1c0.7-0.6,0.8-3.4,0.2-4
		c-1.4-1.3-3.5-2.6-5.2-2.6c-29.4-0.1-58.7-0.1-88.1-0.1c-4,0-6.1,1.6-6.2,4.4c0,2.9,2.1,4.4,6.1,4.4
		C44.6,470.4,59.2,470.4,73.8,470.4z M117.9,448.5c3.9,0,6.2-1.7,6.2-4.4c-0.1-2.8-2.3-4.3-6.2-4.3c-14.5,0-29,0-43.5,0
		c-14.7,0-29.5,0-44.2,0c-4,0-6.2,1.6-6.2,4.4c0,2.8,2.2,4.3,6.2,4.3 M74.3,417.9c-14.9,0-29.8-0.1-44.6,0.1c-1.8,0-4.3,1.1-5.2,2.5
		c-2,3,0.9,6.2,5.6,6.2c29.2,0,58.5,0,87.7,0c3.8,0,6.2-1.9,6.2-4.6c-0.1-2.8-2.2-4.3-6.2-4.3C103.3,417.9,88.8,417.9,74.3,417.9z
		 M74.1,396.1c-14.7,0-29.5,0-44.2,0c-3.1,0-5.6,0.7-6,4.2c-0.3,2.8,2,4.5,6,4.5c29.3,0,58.7,0,88.1,0c3,0,5.6-0.6,6-4.2
		c0.3-2.8-2.1-4.5-6-4.5C103.4,396.1,88.8,396.1,74.1,396.1z M85.1,284.2c-0.1-6.1-5.3-11.1-11.4-11c-6,0.2-11,5.3-10.8,11.1
		c0.2,6.1,5.5,11.3,11.4,11.1C80.1,295.2,85.2,289.9,85.1,284.2z M79.4,311.9c0-3.1-2.3-5.6-5.2-5.7c-3.1-0.1-5.7,2.4-5.7,5.6
		c0,3.1,2.3,5.4,5.4,5.5C77,317.3,79.4,315,79.4,311.9z"/>
	<path class="st0" d="M541.9,56.9c1.3,8.4,2.6,16.2,3.8,24.3c-101.4,0-203.1,0-305.1,0c0,84.8,0,169.2,0,253.9
		c147.8,0,295.5,0,443.9,0c0-1.4,0-2.8,0-4.2c0-47.4,0-94.7,0-142c0-1.8,0.6-3.7,0.9-5.5c0.4-0.1,0.8-0.2,1.2-0.3
		c4,4,8.2,7.9,12,12.2c0.6,0.7,0.1,2.7-0.4,4c-5,13.7-6.3,27.7-2.6,41.9c2.1,8.2,6,15.5,11.3,22.2c1.1,1.4,1.9,3.5,1.9,5.3
		c0.1,30.5,0.1,61,0.1,91.4c0,12.7-7.7,20.3-20.3,20.3c-150.7,0-301.5,0-452.2,0c-12.8,0-20.3-7.4-20.3-20.2c0-94.7,0-189.4,0-284.1
		c0-10.8,6.8-18.2,17.5-19c1.5-0.1,3-0.1,4.5-0.1c99.9,0,199.7,0,299.6,0C539.2,56.9,540.8,56.9,541.9,56.9z M470.8,358.3
		c0-4.8-3.7-8.6-8.4-8.6c-4.7,0-8.4,3.8-8.4,8.6c0.1,4.7,3.5,8.3,8.2,8.4C467,366.8,470.8,363.1,470.8,358.3z"/>
	<path class="st0" d="M1403.2,376.8c-10.1,0-19.6,0-29.7,0c0,37.1,0,74.1,0,111.4c-21.2,0-41.8,0-62.6,0c0-82,0-163.7,0-245.9
		c20.7,0,41.3,0,62.5,0c0,29.2,0,58.2,0,87.5c9.9,0,19.4,0,29.4,0c0-29.1,0-58.1,0-87.4c21.1,0,41.6,0,62.6,0c0,82,0,163.7,0,245.9
		c-20.6,0-41.1,0-62.2,0C1403.2,451.1,1403.2,414,1403.2,376.8z"/>
	<path class="st0" d="M1289.4,339.9c-21.7,0-42.1,0-63.3,0c0-1.3,0-2.6,0-3.9c0-11.4,0.1-22.7-0.1-34.1c0-2.9-0.5-5.9-1.3-8.7
		c-1.5-5.4-6.2-8.2-13-8.2c-7.2,0-11.8,2.4-13.4,7.9c-1,3.5-1.5,7.2-1.5,10.9c-0.1,40.9-0.1,81.2,0,122.1c0,4.1,0.7,8.3,2.1,12.3
		c1.7,4.8,6.8,7.3,12.6,7.2c5.9-0.1,10.9-2.8,12.5-7.5c1.3-3.9,2-7.9,2-11.9c0.2-13.1,0.1-26.1,0.1-39.2c0-1.3,0-2.6,0-4.2
		c21.2,0,42.1,0,63.1,0c0.2,0.5,0.4,1,0.4,1.4c-0.2,18.3,0.2,36.7-0.9,55c-0.9,14.8-7.2,28.2-22.2,38.3
		c-11.4,7.7-25.1,11.1-39.8,12.5c-16.5,1.5-32.9,1.6-48.5-3.5c-23.7-7.8-37.2-22.1-42.1-41.5c-1.3-5.1-2-10.4-2-15.6
		c-0.1-41-0.2-81.5,0.1-122.4c0.1-11.6,2.7-23.1,8.2-34c8.5-17,23.9-27.8,46.9-31.3c18.4-2.8,36.7-2.7,54.6,2.4
		c25.4,7.3,40.9,21.4,43.5,42.3C1289.6,303.8,1288.9,321.7,1289.4,339.9z"/>
	<path class="st0" d="M985.6,488.2c0-82.1,0-163.7,0-245.9c42,0,83.8,0,125.8,0c0,15.7,0,31.1,0,47.1c-20.5,0-40.9,0-61.6,0
		c0,16.2,0,32,0,48.2c19.7,0,39.1,0,58.8,0c0,16,0,30.1,0,46.2c-19.5,0-39.1,0-58.9,0c0,19,0,37.5,0,56.5c21.8,0,43.6,0,65.6,0
		c0,16.2,0,31.9,0,47.9C1072.1,488.2,1029,488.2,985.6,488.2z"/>
	<path class="st0" d="M985.4,224.9c-6.4-35.5-12.8-70.8-19.2-106.2c-0.3,0-0.5,0.1-0.8,0.1c0,35.2,0,70.5,0,106.1
		c-13.2,0-26,0-39.2,0c0-74,0-148.1,0-222.4c1.2-0.1,2.2-0.2,3.3-0.2c11.4,0,22.8,0.1,34.1-0.1c2.6,0,3.8,0.5,4.4,3.8
		c5.5,32.9,11.3,65.8,17,98.7c0,0.2,0.2,0.5,0.7,1.6c0-35.1,0-69.3,0-103.8c13,0,25.7,0,38.7,0c0,74.1,0,148.2,0,222.5
		C1011.5,224.9,998.6,224.9,985.4,224.9z"/>
	<path class="st0" d="M1270.4,224.6c0-73.9,0-147.9,0-222.1c0.9-0.1,1.7-0.3,2.5-0.3c18.2,0,36.5-0.1,54.7,0.1
		c24.1,0.4,39.4,16.4,40.7,43.2c0.9,18.4,0.7,36.9,0.8,55.3c0.1,22,0.4,44.1-0.1,66.1c-0.2,8.5-1.4,17.1-3.4,25.4
		c-4.9,20.6-11.2,31.3-35.6,32.4c-19.6,0.9-39.2,0.3-58.8,0.3C1271,225,1270.8,224.8,1270.4,224.6z M1310.8,185.7c1.8,0,3.2,0,4.6,0
		c10.5,0,13.3-3.2,13.3-14.9c0-37,0-74,0-111c0-3.7-0.3-7.5-0.8-11.2c-0.5-3.4-2.3-6-5.5-6.6c-3.7-0.7-7.6-0.9-11.5-1.3
		C1310.8,89.5,1310.8,137.4,1310.8,185.7z"/>
	<path class="st0" d="M1250.8,111.9c0,19.7,0.2,39.4-0.1,59.1c-0.2,12.8-2.9,25-9.5,35.8c-10.4,16.9-25.8,21.2-43,20.5
		c-18.9-0.8-33.3-9.7-41.1-29.6c-3.5-8.9-5.1-18.3-5.2-27.9c-0.2-38.5-0.3-77.1,0.1-115.6c0.1-7.8,1.6-15.7,3.8-23.1
		c4.5-15,14.3-24.4,28.1-28.3c12.1-3.4,24.3-3.5,36.3,0.5c17.8,5.9,26.8,20.2,29.6,39.9c0.9,6.1,1.1,12.4,1.1,18.6
		c0.2,16.8,0.1,33.6,0.1,50.3C1251,111.9,1250.9,111.9,1250.8,111.9z M1210.5,113.3c0-17.6,0.1-35.2,0-52.8c0-3.8-0.2-7.8-0.9-11.5
		c-1-5.5-3-7.4-7-7.8c-4.7-0.4-8.1,1.8-9.5,6.8c-0.9,3.1-1.4,6.5-1.4,9.8c-0.1,36.3-0.1,72.6,0,109c0,4.1,0.6,8.3,1.4,12.3
		c1.2,5.2,4.2,7.4,8.8,7.1c4.2-0.2,6.6-2.4,7.5-7.7c0.8-4.7,1.1-9.6,1.2-14.4C1210.6,147.1,1210.5,130.2,1210.5,113.3z"/>
	<path class="st0" d="M867.3,289.3c-12.9,0-25,0-37.3,0c0-15.8,0-31.3,0-47.1c45.8,0,91.4,0,137.3,0c0,15.6,0,31,0,46.9
		c-12.1,0-24.3,0-37,0c0,66.6,0,132.4,0,198.9c-21.1,0-41.8,0-63.1,0C867.3,421.9,867.3,356,867.3,289.3z"/>
	<path class="st0" d="M1099.7,129.3c13.7,0,26.8,0,40.1,0c0.2,0.9,0.4,1.6,0.4,2.4c-0.1,15.9,0.2,31.9-0.6,47.8
		c-0.3,7-2.2,14.2-4.5,20.8c-3.7,10.7-11,18.1-20.7,22.2c-12.8,5.4-26.1,6.4-39.4,2.8c-18.8-5.2-31.6-22.8-33.5-45
		c-0.4-4.7-0.6-9.4-0.6-14.1c-0.1-32.4-0.1-64.9,0-97.3c0-11.8,0.8-23.5,4.2-34.9c5.7-19.3,17.3-30.5,35.7-33
		c10.9-1.5,21.7-1,32.1,3.7c13.9,6.3,23.7,17.5,25.4,34.2c1.8,17.1,1.5,34.5,2.1,52c-14,0-27.1,0-40.6,0c0-1.9,0-3.7,0-5.5
		c-0.2-11.5-0.1-23-0.6-34.5c-0.3-6.5-3.3-9.5-8.3-9.7c-5.4-0.2-8.3,2.4-9.3,9c-0.5,3.1-0.5,6.3-0.5,9.5c0,35.8-0.1,71.6,0,107.3
		c0,4,0.3,8.1,1,11.9c0.9,4.8,3.8,7.1,8,7.3c4.3,0.1,7.3-2.1,8.4-7.2c0.8-3.9,1.2-7.9,1.2-11.9
		C1099.8,154.6,1099.7,142.2,1099.7,129.3z"/>
	<path class="st0" d="M1425.6,130.6c0,17.4,0,34,0,51c13.9,0,27.7,0,41.8,0c0,14.7,0,28.9,0,43.3c-27.5,0-54.8,0-82.4,0
		c0-74.1,0-148.1,0-222.5c26.5,0,53.1,0,79.8,0c0,14.2,0,28.2,0,42.7c-12.9,0-25.9,0-39.1,0c0,14.6,0,28.8,0,43.5
		c12.5,0,24.9,0,37.5,0c0,14.2,0,27.8,0,42C1450.8,130.6,1438.4,130.6,1425.6,130.6z"/>
	<path class="st0" d="M870.8,88.7c12.6,0,24.9,0,37.5,0c0,14.1,0,27.9,0,42.1c-12.6,0-25,0-37.6,0c0,17.2,0,33.9,0,51
		c13.9,0,27.6,0,41.6,0c0,14.5,0,28.7,0,43.1c-27.4,0-54.7,0-82.3,0c0-74.1,0-148.1,0-222.5c26.6,0,53.1,0,79.9,0
		c0,14.2,0,28.3,0,42.7c-13,0-25.9,0-39.1,0C870.8,59.7,870.8,73.8,870.8,88.7z"/>
	<path class="st0" d="M207.8,51.2c-7.6,8.8-9.8,18.7-9.3,29.4c0.2,5.7-0.1,11.5,0.1,17.2c0.1,2.4-0.6,3.8-2.7,5.2
		c-15.2,9.6-30.3,19.3-45.5,29c-1.3,0.8-3,1.4-4.5,1.4c-47.7,0.1-95.4,0.1-143.2,0.1c-0.5,0-1-0.1-2.1-0.2c1.1-0.9,1.8-1.5,2.5-2
		C43.9,105,84.7,78.8,125.4,52.7c1.4-0.9,3.2-1.6,4.8-1.6c25-0.1,50-0.1,75-0.1C205.8,50.9,206.4,51,207.8,51.2z"/>
	<path class="st0" d="M517.3,389.6c4,24.1,8,48.1,12,72.3c-44.5,0-88.9,0-133.7,0c4-24.1,8-48.1,11.9-72.3
		C444.1,389.6,480.5,389.6,517.3,389.6z"/>
	<path class="st0" d="M673,127.6c19.4-19.4,38-38,56.6-56.7c6.1-6.1,12.1-12.3,18.3-18.2c2.9-2.8,5.2-5.6,5.7-9.7
		c0.2-1.2,1.2-2.5,2.2-3.2c6.7-5.2,13.5-10.2,20.2-15.2c3,3.1,5.8,6.1,9.1,9.6c-4.9,6.5-10.3,13.8-15.9,21c-0.5,0.7-1.7,1.1-2.6,1.2
		c-4.1,0.3-6.7,2.7-9.4,5.4c-23.9,24.1-48,48.1-72,72.2c-0.8,0.8-1.8,1.4-3.9,3c3.2,2.6,5.8,4.7,8.4,6.9c1.8,1.6,1.6,3.3,1,5.6
		c-2.7,9.6-10.8,14.9-16.9,21.7c-20.3,22.7-41,45.1-61.7,67.4c-7.9,8.5-17.9,11.3-29,8.1c-10.7-3.1-17.5-10.5-19.6-21.5
		c-2.1-10.6,1-19.7,9-27.1c19.9-18.2,39.8-36.5,59.7-54.7c7.3-6.7,14.4-13.5,21.9-19.9c2.6-2.1,6.2-3.1,9.5-4.2
		c0.9-0.3,2.6,0.8,3.5,1.7C669.1,123,670.9,125.2,673,127.6z M610.6,220.8c1.7-1.4,2.7-2,3.4-2.8c3.3-3.2,6.5-6.5,9.8-9.8
		c12.4-12.4,24.8-24.7,37-37.2c0.8-0.9,0.9-2.5,1.3-3.7c-1.4,0.3-2.8,0.6-4.1,1c-0.3,0.1-0.5,0.5-0.8,0.8
		c-15.2,15.2-30.4,30.4-45.6,45.6c-0.7,0.7-1.8,1.4-1.9,2.2C609.6,217.9,610.2,219.1,610.6,220.8z M653.2,158.9
		c-0.6-0.7-1.2-1.8-1.4-1.7c-1.2,0.3-2.6,0.7-3.5,1.5c-15.7,15.6-31.3,31.1-46.8,46.8c-0.9,0.9-0.9,2.6-1.3,4c1.3-0.4,3.1-0.4,4-1.3
		c15.8-15.6,31.5-31.3,47.1-47C652,160.6,652.5,159.8,653.2,158.9z M643.6,149.1c-0.6-0.7-1.2-1.8-1.5-1.7c-1.1,0.2-2.4,0.6-3.2,1.4
		c-15.8,15.7-31.5,31.4-47.1,47.1c-0.9,0.9-0.8,2.7-1.2,4c1.4-0.4,3.1-0.4,4-1.3c15.8-15.6,31.4-31.4,47.1-47.2
		C642.3,150.8,642.9,150,643.6,149.1z"/>
	<path class="st0" d="M690.6,163.1c8.3-11,10.3-19.1,1.9-26.2c5.9-5.9,11.9-11.9,18-18.1c0.7,0.7,1.7,1.6,2.7,2.6
		c14.4,14.4,28.8,28.8,43.2,43.2c1.7,1.7,3.2,2.1,5.6,1.8c18.7-2.5,34.4,2.7,44.5,19.3c9.3,15.3,7.7,31.3,0.3,46.9
		c-1.7,3.6-5.3,3.4-7.1-0.1c-2-3.9-3.8-7.9-5.9-11.7c-4.6-8.7-14.2-12.9-23.8-10.7c-15.9,3.7-26.8,18.2-23.8,32.9
		c1.1,5.7,4.6,10.9,6.9,16.5c0.6,1.5,1.3,3.5,0.9,4.9c-0.8,2.9-3.4,3.2-6.1,2.9c-18.3-1.8-33.6-16.4-36.3-34.6
		c-2-13.2,0.8-25.3,7.7-36.6c1.5-2.4,1.3-3.7-0.7-5.6C709.1,181.4,699.9,172.2,690.6,163.1z"/>
	<path class="st0" d="M287,397.8c1.5,5.4-0.3,8.2-4.5,10.9c-39.7,25.3-79.2,50.8-118.8,76.3c-1.2,0.8-2.5,1.5-4.4,2.6
		c0-1.9,0-3.2,0-4.5c0-112.6,0-225.1-0.1-337.7c0-3.4,1.1-5.1,3.8-6.8c10.7-6.7,21.2-13.6,31.9-20.4c1-0.7,2.1-1.2,3.6-2.1
		c0,9,0.1,17.4-0.1,25.9c0,0.9-1.3,2-2.2,2.6c-6.7,4.8-13.5,9.5-20.4,14.1c-2.5,1.6-3.4,3.4-3.4,6.4c0.1,89.8,0.1,179.6,0.1,269.5
		c0,5.6,0,11.2,0,16.9c0,1.2,0.1,2.4,0.2,4.2c4.2-2.9,8-5.5,11.7-8.1c23-15.9,46-31.8,69.1-47.6c1.7-1.2,4.1-1.9,6.1-2
		C268.8,397.6,277.9,397.8,287,397.8z"/>
	<path class="st0" d="M691.6,98.9c-6.6,6.8-12.4,12.7-18.2,18.7c-7.3-7.4-13.8-6.2-25.5,2.1c-0.9-0.8-1.9-1.7-2.8-2.7
		c-5.9-5.9-11.9-11.7-17.7-17.8c-1.8-1.8-3.2-2.1-5.5-1.1c-10,4-20.4,4.9-30.8,2.3c-20.6-5.2-33.9-25.5-30.8-46.9
		c0.2-1.5,0.3-3,0.7-4.4c1.1-4.1,4.4-5,7.5-2.1c2.3,2.2,4.8,4.4,6.9,6.9c10.5,12.7,29.1,9,38.3-1.5c5.6-6.3,8.9-13.5,8.1-22.2
		c-0.5-5.5-2.8-10-6.7-13.8c-2.7-2.6-5.4-5.2-8-7.9c-3-3.1-2.1-6.6,2.1-7.5c25.1-5.4,48.7,9.6,52.2,34.8c1.2,8.9,0.1,17.5-3.1,25.7
		c-1,2.7-0.5,4.2,1.5,6.1C670.4,78.1,681.1,88.7,691.6,98.9z"/>
	<path class="st0" d="M239.8,398.6c-19.3,13.3-38.6,26.6-58.3,40.2c-0.1-1.5-0.3-2.5-0.3-3.5c0-88.8,0-177.6-0.1-266.5
		c0-2.4,0.6-3.8,2.7-5.1c4.7-3,9.3-6.3,14.6-9.9c0,2,0,3.4,0,4.8c0,67.2,0,134.4,0,201.6c0,13.1,4.8,23.8,15.7,31.4
		c5.6,3.9,11.8,5.9,18.6,6.1c2.2,0.1,4.4,0,6.7,0C239.6,398,239.7,398.3,239.8,398.6z"/>
	<path class="st0" d="M462.3,490c-27.1,0-54.2,0-81.4,0c-6.3,0-8.4-2.3-8.4-9.1c0-7.3,2.1-9.8,8.6-9.8c54.2,0,108.5,0,162.7,0
		c3.7,0,6.7,0.9,8.2,4.6c1.5,4,0.7,10.8-2,12.6c-1.6,1.1-3.9,1.6-5.9,1.6C516.8,490,489.5,490,462.3,490z"/>
	<path class="st0" d="M696.4,80.5c-6.5-6.7-12.3-12.5-18-18.5c-0.8-0.8-1.2-2.4-0.9-3.5c0.2-0.7,1.8-1.5,2.8-1.5
		c4.1-0.1,8.2-0.2,12.3,0.2c6,0.5,10.4,3.7,13.7,8.7c1.1,1.7,1.2,2.9-0.4,4.5C702.7,73.4,699.9,76.8,696.4,80.5z"/>
</g>
</svg>
